<svg width="160" height="160" viewBox="0 0 160 160" fill="none" xmlns="http://www.w3.org/2000/svg">
<path d="M0 20C0 8.95431 8.95431 0 20 0H140C151.046 0 160 8.95431 160 20V140C160 151.046 151.046 160 140 160H20C8.95431 160 0 151.046 0 140V20Z" fill="#2F2F33"/>
<path d="M147.5 75.6699C150.833 77.5944 150.833 82.4056 147.5 84.3301L50 140.622C46.6667 142.546 42.5 140.141 42.5 136.292L42.5 23.7083C42.5 19.8593 46.6667 17.4537 50 19.3782L147.5 75.6699Z" fill="#FC0C54"/>
<path d="M52.75 60H58.05L60.5 86.9H60.6L63.2 60H69.2L71.8 86.9H71.9L74.35 60H79.1L75.55 95H68.7L66.2 71.4H66.1L63.6 95H56.3L52.75 60ZM80.8262 60H86.1262L88.5762 86.9H88.6762L91.2762 60H97.2762L99.8762 86.9H99.9762L102.426 60H107.176L103.626 95H96.7762L94.2762 71.4H94.1762L91.6762 95H84.3762L80.8262 60Z" fill="white"/>
</svg>
