<svg width="267" height="128" viewBox="0 0 267 128" fill="none" xmlns="http://www.w3.org/2000/svg">
<path fill-rule="evenodd" clip-rule="evenodd" d="M266.667 116.845V11.0006C265.946 5.36509 261.552 0.876318 255.957 0H10.814C4.68699 0.960001 0 6.25144 0 12.6375V115.208C0 122.273 5.73842 128 12.8165 128H253.956C260.478 128 265.862 123.137 266.667 116.845Z" fill="url(#paint0_radial_29_3128)"/>
<path opacity="0.4" fill-rule="evenodd" clip-rule="evenodd" d="M11.4286 0.0455856H255.238V44.8254H11.4286V0.0455856Z" fill="url(#paint1_radial_29_3128)"/>
<path fill-rule="evenodd" clip-rule="evenodd" d="M36.8254 25.2699H56.9804V102.857H36.8254V25.2699Z" fill="black"/>
<g opacity="0.3">
<path opacity="0.3" d="M56.9804 25.2699V102.857H36.8254V25.2699H56.9804ZM58.7582 23.4921H56.9804H36.8254H35.0477V25.2699V102.857V104.635H36.8254H56.9804H58.7582V102.857V25.2699V23.4921Z" fill="#FBFBED"/>
</g>
<path fill-rule="evenodd" clip-rule="evenodd" d="M99.9645 25.2699L95.2966 61.5163L92.409 41.8058C91.5671 35.4795 90.762 29.9671 89.9937 25.2699H63.8629V102.857H81.5163L81.5798 51.628L89.0096 102.857H101.584L108.632 50.4877L108.696 102.857H126.293V25.2699H99.9645Z" fill="black"/>
<g opacity="0.3">
<path opacity="0.3" d="M126.293 25.2699V102.857H108.696L108.632 50.4877L101.584 102.857H89.0096L81.5798 51.628L81.5163 102.857H63.8629V25.2699H89.9937C90.762 29.967 91.5671 35.4794 92.409 41.8058L95.2966 61.5163L99.9645 25.2699H126.293ZM128.071 23.4921H126.293H99.9645H98.401L98.2012 25.0428L95.1832 48.4781L94.1696 41.5599C93.3296 35.2482 92.5149 29.6709 91.7482 24.983L91.5043 23.4922H89.9937H63.8629H62.0851V25.27V102.857V104.635H63.8629H81.5163H83.2918L83.2941 102.86L83.3272 76.0633L87.2502 103.113L87.4711 104.635H89.0096H101.584H103.138L103.345 103.095L106.887 76.786L106.918 102.86L106.92 104.635H108.696H126.293H128.071V102.858V25.2701V23.4921Z" fill="#FBFBED"/>
</g>
<path fill-rule="evenodd" clip-rule="evenodd" d="M157.812 39.2331C158.609 39.694 159.119 40.4216 159.341 41.4083C159.563 42.3975 159.676 44.6451 159.676 48.1524V78.2312C159.676 83.3969 159.341 86.5601 158.672 87.7233C158.003 88.889 156.219 89.4693 153.322 89.4693V38.5397C155.518 38.5397 157.016 38.7708 157.812 39.2331ZM157.604 102.857C162.432 102.857 166.046 102.595 168.446 102.067C170.845 101.542 172.859 100.616 174.492 99.2928C176.122 97.9695 177.265 96.136 177.921 93.7892C178.577 91.4464 178.966 86.7949 178.966 79.8412V52.5929C178.966 45.2545 178.679 40.3339 178.233 37.8297C177.784 35.3269 176.666 33.0539 174.874 31.012C173.083 28.9701 170.467 27.5034 167.029 26.6107C163.591 25.718 157.979 25.2697 148.224 25.2697H133.186V102.857H157.604V102.857Z" fill="black"/>
<g opacity="0.3">
<path opacity="0.3" d="M148.224 25.2699C157.979 25.2699 163.591 25.7181 167.029 26.6108C170.467 27.5035 173.083 28.9702 174.874 31.0121C176.666 33.054 177.784 35.327 178.233 37.8299C178.68 40.334 178.966 45.2547 178.966 52.5931V79.8414C178.966 86.795 178.577 91.4466 177.921 93.7893C177.265 96.136 176.122 97.9696 174.492 99.2929C172.859 100.616 170.845 101.542 168.446 102.068C166.046 102.595 162.432 102.857 157.604 102.857H133.186V25.27H148.224V25.2699ZM153.322 89.4693C156.219 89.4693 158.003 88.889 158.672 87.7233C159.341 86.5601 159.676 83.3969 159.676 78.2312V48.1524C159.676 44.6451 159.563 42.3975 159.341 41.4083C159.119 40.4216 158.608 39.694 157.812 39.2331C157.016 38.7708 155.518 38.5397 153.322 38.5397V89.4693ZM148.224 23.4921H133.186H131.408V25.2699V102.857V104.635H133.186H157.604C162.609 104.635 166.28 104.363 168.827 103.804C171.483 103.222 173.766 102.169 175.611 100.674C177.526 99.1197 178.879 96.9648 179.634 94.2683C180.371 91.6332 180.744 86.7793 180.744 79.8415V52.5932C180.744 45.5221 180.481 40.3091 179.983 37.5176C179.478 34.7002 178.209 32.1174 176.21 29.8397C174.19 27.5356 171.251 25.8704 167.475 24.8902C163.753 23.9232 157.815 23.4921 148.224 23.4921ZM155.1 87.5935V40.3846C156.331 40.4908 156.787 40.6936 156.92 40.7705C157.165 40.9123 157.462 41.1562 157.607 41.7989C157.716 42.2832 157.899 43.7542 157.899 48.1524V78.2312C157.899 84.9782 157.311 86.5238 157.131 86.8367C157.091 86.9056 156.76 87.3841 155.1 87.5935Z" fill="#FBFBED"/>
</g>
<path fill-rule="evenodd" clip-rule="evenodd" d="M212.045 84.0306C212.045 87.7855 211.858 90.1576 211.486 91.1442C211.113 92.1322 209.49 92.6287 208.259 92.6287C207.059 92.6287 206.259 92.1525 205.853 91.1963C205.448 90.2414 205.247 88.0612 205.247 84.6529V64.1486C205.247 60.6134 205.425 58.4102 205.782 57.5328C206.137 56.6591 206.915 56.2197 208.113 56.2197C209.342 56.2197 210.992 56.7188 211.414 57.722C211.834 58.7251 212.045 60.8674 212.045 64.1461V84.0306ZM185.831 25.2699V102.857H203.976L205.232 97.9137C206.873 99.9011 208.682 101.392 210.662 102.385C212.64 103.378 215.595 103.873 217.88 103.873C221.066 103.873 223.816 103.036 226.134 101.365C228.45 99.6928 229.923 97.7157 230.551 95.4376C231.179 93.1582 231.492 89.6952 231.492 85.0426V63.275C231.492 58.5905 231.387 55.5328 231.179 54.0991C230.968 52.6654 230.351 51.2001 229.322 49.7029C228.292 48.207 226.798 47.0439 224.834 46.2146C222.873 45.3842 220.559 44.9702 217.89 44.9702C215.574 44.9702 212.605 45.4312 210.626 46.3454C208.648 47.2597 206.855 48.6477 205.247 50.508V25.2699H185.831Z" fill="black"/>
<g opacity="0.3">
<path opacity="0.3" d="M205.247 25.2699V50.508C206.855 48.6477 208.648 47.2597 210.626 46.3454C212.605 45.4312 215.573 44.9702 217.89 44.9702C220.559 44.9702 222.872 45.3842 224.834 46.2146C226.797 47.0439 228.292 48.207 229.322 49.7029C230.351 51.2001 230.968 52.6654 231.178 54.0991C231.387 55.5328 231.492 58.5905 231.492 63.275V85.0426C231.492 89.6953 231.178 93.1582 230.551 95.4376C229.923 97.7155 228.45 99.6928 226.133 101.365C223.816 103.036 221.065 103.873 217.879 103.873C215.595 103.873 212.64 103.378 210.662 102.385C208.682 101.392 206.872 99.9011 205.232 97.9137L203.976 102.857H185.831V25.2699H205.247ZM208.259 92.6287C209.49 92.6287 211.113 92.1322 211.486 91.1442C211.858 90.1576 212.045 87.7856 212.045 84.0306V64.1461C212.045 60.8674 211.834 58.7251 211.413 57.722C210.992 56.7188 209.342 56.2197 208.113 56.2197C206.915 56.2197 206.137 56.6591 205.782 57.5328C205.425 58.4102 205.247 60.6134 205.247 64.1486V84.6529C205.247 88.0612 205.448 90.2415 205.853 91.1963C206.259 92.1525 207.059 92.6287 208.259 92.6287ZM207.025 23.4921H205.247H185.831H184.054V25.2699V102.857V104.635H185.831H203.976H205.359L205.699 103.295L206.169 101.447C207.333 102.478 208.569 103.324 209.865 103.974C212.331 105.212 215.724 105.651 217.88 105.651C221.43 105.651 224.557 104.694 227.173 102.807C229.816 100.899 231.529 98.5788 232.265 95.9103C232.941 93.4523 233.27 89.8977 233.27 85.0425V63.2749C233.27 58.4667 233.162 55.3816 232.938 53.8434C232.687 52.1397 231.964 50.4089 230.787 48.6961C229.565 46.9207 227.795 45.5352 225.526 44.5768C223.356 43.6583 220.787 43.1923 217.89 43.1923C215.731 43.1923 212.339 43.5953 209.88 44.7315C208.888 45.1899 207.935 45.7571 207.025 46.4295V25.2699V23.4921ZM208.259 90.8509C207.638 90.8509 207.566 90.6809 207.489 90.5009C207.381 90.245 207.025 89.0638 207.025 84.6528V64.1486C207.025 59.5524 207.334 58.4352 207.429 58.2023C207.462 58.1215 207.482 58.1098 207.504 58.0973C207.546 58.0738 207.713 57.9975 208.113 57.9975C208.912 57.9975 209.615 58.2922 209.795 58.4614C209.951 58.8771 210.267 60.2072 210.267 64.1462V84.0307C210.267 88.5145 209.995 89.9767 209.851 90.4362C209.655 90.593 208.995 90.8509 208.259 90.8509Z" fill="#FBFBED"/>
</g>
<defs>
<radialGradient id="paint0_radial_29_3128" cx="0" cy="0" r="1" gradientUnits="userSpaceOnUse" gradientTransform="translate(131.082 68.7549) scale(107.601)">
<stop stop-color="#FCF06E"/>
<stop offset="0.99" stop-color="#DBA506"/>
</radialGradient>
<radialGradient id="paint1_radial_29_3128" cx="0" cy="0" r="1" gradientUnits="userSpaceOnUse" gradientTransform="translate(132.318 5.80221) scale(100.872 87.9405)">
<stop stop-color="white"/>
<stop offset="1" stop-color="white" stop-opacity="0"/>
</radialGradient>
</defs>
</svg>
