<svg width="238" height="40" viewBox="0 0 238 40" fill="none" xmlns="http://www.w3.org/2000/svg">
<path d="M0.181885 6.90911H4.03643L5.81825 26.4727H5.89098L7.78189 6.90911H12.1455L14.0364 26.4727H14.1092L15.891 6.90911H19.3455L16.7637 32.3637H11.7819L9.9637 15.2H9.89098L8.07279 32.3637H2.7637L0.181885 6.90911ZM21.3688 6.90911H25.3688V17.2727H29.6597V6.90911H33.6597V32.3637H29.6597V20.9091H25.3688V32.3637H21.3688V6.90911ZM39.7296 6.90911H45.1478L49.2932 32.3637H45.2932L44.566 27.3091V27.3818H40.0205L39.2932 32.3637H35.5841L39.7296 6.90911ZM44.0932 23.9273L42.3114 11.3455H42.2387L40.4932 23.9273H44.0932ZM52.6921 10.5455H48.5103V6.90911H60.8743V10.5455H56.6924V32.3637H52.6921V10.5455ZM71.7615 10.5455H67.5797V6.90911H79.9433V10.5455H75.7615V32.3637H71.7615V10.5455ZM87.5201 32.7273C85.5564 32.7273 84.0532 32.1697 83.011 31.0546C81.9688 29.9394 81.4474 28.3637 81.4474 26.3273V12.9455C81.4474 10.9091 81.9688 9.33333 83.011 8.2182C84.0532 7.10307 85.5564 6.54547 87.5201 6.54547C89.4837 6.54547 90.987 7.10307 92.0292 8.2182C93.0713 9.33333 93.5928 10.9091 93.5928 12.9455V26.3273C93.5928 28.3637 93.0713 29.9394 92.0292 31.0546C90.987 32.1697 89.4837 32.7273 87.5201 32.7273ZM87.5201 29.0909C88.9019 29.0909 89.5928 28.2546 89.5928 26.5818V12.6909C89.5928 11.0182 88.9019 10.1818 87.5201 10.1818C86.1383 10.1818 85.4474 11.0182 85.4474 12.6909V26.5818C85.4474 28.2546 86.1383 29.0909 87.5201 29.0909ZM101.176 6.90911H105.031L106.812 26.4727H106.885L108.776 6.90911H113.14L115.031 26.4727H115.103L116.885 6.90911H120.34L117.758 32.3637H112.776L110.958 15.2H110.885L109.067 32.3637H103.758L101.176 6.90911ZM124.957 6.90911H130.375L134.521 32.3637H130.521L129.794 27.3091V27.3818H125.248L124.521 32.3637H120.812L124.957 6.90911ZM129.321 23.9273L127.539 11.3455H127.466L125.721 23.9273H129.321ZM137.919 10.5455H133.738V6.90911H146.101V10.5455H141.919V32.3637H137.919V10.5455ZM153.532 32.7273C151.617 32.7273 150.151 32.1818 149.132 31.0909C148.138 30 147.642 28.4606 147.642 26.4727V12.8C147.642 10.8122 148.138 9.27274 149.132 8.18184C150.151 7.09093 151.617 6.54547 153.532 6.54547C155.447 6.54547 156.902 7.09093 157.896 8.18184C158.914 9.27274 159.423 10.8122 159.423 12.8V15.4909H155.642V12.5455C155.642 10.9697 154.975 10.1818 153.642 10.1818C152.308 10.1818 151.642 10.9697 151.642 12.5455V26.7637C151.642 28.3151 152.308 29.0909 153.642 29.0909C154.975 29.0909 155.642 28.3151 155.642 26.7637V22.8727H159.423V26.4727C159.423 28.4606 158.914 30 157.896 31.0909C156.902 32.1818 155.447 32.7273 153.532 32.7273ZM161.816 6.90911H165.816V17.2727H170.107V6.90911H174.107V32.3637H170.107V20.9091H165.816V32.3637H161.816V6.90911ZM185.674 24.1091C185.674 23.2122 185.807 22.3637 186.074 21.5637C186.364 20.7394 186.886 19.794 187.637 18.7273C188.51 17.4909 189.104 16.4242 189.419 15.5273C189.735 14.6303 189.892 13.6849 189.892 12.6909C189.892 11.8182 189.722 11.1879 189.383 10.8C189.044 10.3879 188.546 10.1818 187.892 10.1818C187.237 10.1818 186.74 10.3879 186.401 10.8C186.062 11.1879 185.892 11.8182 185.892 12.6909V15.4546H182.11V12.9455C182.11 10.8849 182.607 9.30911 183.601 8.2182C184.595 7.10307 186.05 6.54547 187.964 6.54547C189.904 6.54547 191.371 7.10307 192.364 8.2182C193.383 9.30911 193.892 10.8849 193.892 12.9455C193.892 14.0606 193.686 15.1394 193.274 16.1818C192.886 17.2 192.207 18.3515 191.237 19.6364C190.462 20.6788 189.916 21.5515 189.601 22.2546C189.31 22.9333 189.164 23.6 189.164 24.2546V25.6364H185.674V24.1091ZM185.492 28.5091H189.346V32.3637H185.492V28.5091Z" fill="white"/>
<path d="M235.818 18.8453C236.707 19.3585 236.707 20.6415 235.818 21.1547L209.818 36.1658C208.929 36.679 207.818 36.0375 207.818 35.0111V4.98889C207.818 3.96249 208.929 3.32099 209.818 3.83419L235.818 18.8453Z" fill="url(#paint0_linear_185_2089)"/>
<path d="M210.552 14.6667H211.965L212.618 21.84H212.645L213.338 14.6667H214.938L215.632 21.84H215.658L216.312 14.6667H217.578L216.632 24H214.805L214.138 17.7067H214.112L213.445 24H211.498L210.552 14.6667ZM218.039 14.6667H219.452L220.105 21.84H220.132L220.825 14.6667H222.425L223.119 21.84H223.145L223.799 14.6667H225.065L224.119 24H222.292L221.625 17.7067H221.599L220.932 24H218.985L218.039 14.6667Z" fill="white"/>
<defs>
<linearGradient id="paint0_linear_185_2089" x1="207.152" y1="27.4667" x2="252.218" y2="3.06667" gradientUnits="userSpaceOnUse">
<stop stop-color="#FC0C54"/>
<stop offset="1" stop-color="#2D00DF"/>
</linearGradient>
</defs>
</svg>
