<svg width="80" height="80" viewBox="0 0 80 80" fill="none" xmlns="http://www.w3.org/2000/svg">
<path d="M76 37.6906C77.7778 38.717 77.7778 41.283 76 42.3094L24 72.3316C22.2222 73.358 20 72.075 20 70.0222L20 9.97779C20 7.92499 22.2222 6.64199 24 7.66839L76 37.6906Z" fill="url(#paint0_linear_352_1271)"/>
<path d="M25.4667 29.3333H28.2933L29.6 43.68H29.6533L31.04 29.3333H34.24L35.6267 43.68H35.68L36.9867 29.3333H39.52L37.6267 48H33.9733L32.64 35.4133H32.5867L31.2533 48H27.36L25.4667 29.3333ZM40.4406 29.3333H43.2673L44.574 43.68H44.6273L46.014 29.3333H49.214L50.6006 43.68H50.654L51.9606 29.3333H54.494L52.6006 48H48.9473L47.614 35.4133H47.5606L46.2273 48H42.334L40.4406 29.3333Z" fill="white"/>
<defs>
<linearGradient id="paint0_linear_352_1271" x1="18.6667" y1="54.9333" x2="108.8" y2="6.13333" gradientUnits="userSpaceOnUse">
<stop stop-color="#FC0C54"/>
<stop offset="1" stop-color="#2D00DF"/>
</linearGradient>
</defs>
</svg>
