<svg width="109" height="63" viewBox="0 0 109 63" fill="none" xmlns="http://www.w3.org/2000/svg">
<path d="M101.5 27.1699C104.833 29.0944 104.833 33.9056 101.5 35.8301L69.25 54.4497C65.9167 56.3742 61.75 53.9685 61.75 50.1195L61.75 12.8805C61.75 9.03146 65.9167 6.62583 69.25 8.55033L101.5 27.1699Z" fill="#FC0C54"/>
<path d="M0.75 13H6.05L8.5 39.9H8.6L11.2 13H17.2L19.8 39.9H19.9L22.35 13H27.1L23.55 48H16.7L14.2 24.4H14.1L11.6 48H4.3L0.75 13ZM28.8262 13H34.1262L36.5762 39.9H36.6762L39.2762 13H45.2762L47.8762 39.9H47.9762L50.4262 13H55.1762L51.6262 48H44.7762L42.2762 24.4H42.1762L39.6762 48H32.3762L28.8262 13Z" fill="white"/>
</svg>
