<svg width="98" height="70" viewBox="0 0 98 70" fill="none" xmlns="http://www.w3.org/2000/svg">
<g clip-path="url(#clip0_352_1265)">
<path d="M26.7931 35C26.791 33.781 27.0293 32.5736 27.4944 31.4469C27.9594 30.3201 28.6421 29.2961 29.5033 28.4334C30.3645 27.5708 31.3873 26.8864 32.5133 26.4194C33.6393 25.9525 34.8463 25.7121 36.0652 25.7121H36.0127C37.2317 25.7121 38.4387 25.9525 39.5647 26.4194C40.6906 26.8864 41.7135 27.5708 42.5747 28.4334C43.4359 29.2961 44.1185 30.3201 44.5836 31.4469C45.0486 32.5736 45.2869 33.781 45.2849 35C45.2849 37.4591 44.308 39.8175 42.5691 41.5564C40.8303 43.2952 38.4719 44.2721 36.0127 44.2721H36.0652C33.6061 44.2721 31.2477 43.2952 29.5088 41.5564C27.77 39.8175 26.7931 37.4591 26.7931 35ZM70.1732 18.56H87.437C89.8962 18.56 92.2545 17.5831 93.9934 15.8442C95.7323 14.1054 96.7092 11.747 96.7092 9.28786C96.7112 8.0689 96.4729 6.8615 96.0079 5.73474C95.5428 4.60798 94.8602 3.58397 93.999 2.7213C93.1378 1.85864 92.1149 1.17425 90.989 0.707301C89.863 0.240349 88.656 -1.75681e-06 87.437 0L70.1732 0C68.9542 -1.75681e-06 67.7472 0.240349 66.6212 0.707301C65.4953 1.17425 64.4724 1.85864 63.6112 2.7213C62.75 3.58397 62.0674 4.60798 61.6023 5.73474C61.1373 6.8615 60.899 8.0689 60.9011 9.28786C60.9011 11.747 61.8779 14.1054 63.6168 15.8442C65.3557 17.5831 67.7141 18.56 70.1732 18.56ZM10.8778 69.9843H44.4085C46.8677 69.9843 49.2261 69.0074 50.9649 67.2685C52.7038 65.5297 53.6807 63.1713 53.6807 60.7121C53.6827 59.4932 53.4444 58.2858 52.9794 57.159C52.5143 56.0323 51.8317 55.0083 50.9705 54.1456C50.1093 53.2829 49.0864 52.5985 47.9605 52.1316C46.8345 51.6646 45.6275 51.4243 44.4085 51.4243H10.8778C9.65885 51.4243 8.45186 51.6646 7.32589 52.1316C6.19992 52.5985 5.17707 53.2829 4.31587 54.1456C3.45466 55.0083 2.77201 56.0323 2.30697 57.159C1.84193 58.2858 1.60363 59.4932 1.6057 60.7121C1.6057 63.1713 2.58258 65.5297 4.32144 67.2685C6.0603 69.0074 8.41869 69.9843 10.8778 69.9843ZM54.9138 44.2721H58.1934L65.8546 25.7121H61.473L56.8029 37.8861H56.7504L52.1589 25.7121H47.4888L54.9138 44.2721ZM71.9415 44.2721H76.0345V25.7121H71.9415V44.2721ZM83.5907 44.2721H96.6829V40.5097H87.6837V36.7316H95.7384V32.9535H87.6837V29.4903H96.2107V25.7121H83.617L83.5907 44.2721ZM5.29985 18.5757H9.3928V3.62069H14.6927V0H0V3.62069H5.29985V18.5757ZM20.4648 18.5757H24.5577V10.5472H32.4813V18.5757H36.5742V0H32.4813V6.92654H24.5315V0H20.4648V18.5757ZM42.1102 18.5757H55.2286V14.7976H46.1769V11.0195H54.2316V7.24138H46.1769V3.77811H54.7039V0H42.1102V18.5757ZM0.655922 44.2879H4.72264V30.0412H4.77511L9.49775 44.2879H12.5937L17.4738 30.0412H17.5262V44.2879H21.6192V25.7121H15.4535L11.1507 37.8336H11.0982L6.82159 25.7121H0.629685L0.655922 44.2879ZM59.4738 70H66.1169C67.4627 70.007 68.8012 69.8033 70.084 69.3966C71.2946 69.0185 72.4244 68.4189 73.416 67.6282C74.3803 66.8434 75.1626 65.8587 75.7091 64.7421C76.3148 63.5044 76.6238 62.1426 76.6117 60.7646C76.6545 59.273 76.3528 57.7916 75.7301 56.4355C75.183 55.2925 74.3696 54.2974 73.3583 53.5337C72.2991 52.7744 71.0982 52.2355 69.8268 51.949C68.4418 51.603 67.0198 51.4268 65.5922 51.4243H59.4475L59.4738 70ZM63.572 55.2024H65.9858C66.8136 55.1994 67.6379 55.3089 68.4363 55.5277C69.1703 55.7274 69.8607 56.0619 70.4723 56.5142C71.0534 56.9567 71.524 57.5279 71.8471 58.1829C72.2076 58.9207 72.3874 59.7337 72.3718 60.5547C72.3943 61.471 72.2152 62.381 71.8471 63.2204C71.5333 63.9122 71.0517 64.5146 70.446 64.973C69.8191 65.4328 69.1049 65.7596 68.3471 65.9333C67.4868 66.1315 66.6062 66.2283 65.7234 66.2219H63.5457L63.572 55.2024ZM82.536 70H90.1447C90.9788 69.9981 91.8106 69.9102 92.6267 69.7376C93.4178 69.5799 94.1757 69.287 94.8673 68.8718C95.524 68.48 96.0808 67.9411 96.494 67.2976C96.9365 66.5569 97.1552 65.704 97.1237 64.8418C97.1283 64.2694 97.0305 63.7007 96.8351 63.1627C96.6539 62.6545 96.3739 62.1873 96.0113 61.7879C95.6461 61.3879 95.2103 61.0588 94.7256 60.8171C94.2027 60.5501 93.6386 60.3727 93.057 60.2924V60.2399C93.9581 59.9807 94.7653 59.4669 95.3816 58.7601C95.985 58.0223 96.2968 57.0888 96.2579 56.1364C96.2997 55.2816 96.0898 54.4332 95.6544 53.6964C95.2637 53.0897 94.721 52.5958 94.0802 52.2639C93.3949 51.9138 92.6549 51.6831 91.8921 51.5817C91.0869 51.4711 90.2752 51.415 89.4625 51.4138H82.536V70ZM86.6289 54.8876H89.41C89.7356 54.8893 90.0604 54.9192 90.3808 54.9768C90.6922 55.031 90.9932 55.1337 91.2729 55.2811C91.5349 55.4207 91.757 55.6248 91.9183 55.8741C92.0937 56.1608 92.1795 56.4933 92.1649 56.8291C92.1742 57.1577 92.0983 57.4831 91.9445 57.7736C91.8026 58.0298 91.5987 58.2462 91.3516 58.4033C91.0995 58.5653 90.8205 58.6808 90.5277 58.7444C90.2212 58.8135 89.908 58.8487 89.5937 58.8493H86.5817L86.6289 54.8876ZM86.6289 62.3126H89.7249C90.0848 62.3144 90.4442 62.3407 90.8006 62.3913C91.1617 62.4405 91.5146 62.5376 91.8501 62.6799C92.1732 62.8124 92.4582 63.0234 92.6792 63.2939C92.9049 63.596 93.0198 63.9665 93.0045 64.3433C93.0178 64.7006 92.9325 65.0546 92.7579 65.3666C92.597 65.6398 92.3764 65.873 92.1124 66.0487C91.8464 66.2259 91.549 66.3506 91.2361 66.416C90.9205 66.4841 90.5987 66.5193 90.2759 66.521H86.6027L86.6289 62.3126Z" fill="url(#paint0_linear_352_1265)"/>
</g>
<defs>
<linearGradient id="paint0_linear_352_1265" x1="0" y1="35" x2="97.0974" y2="35" gradientUnits="userSpaceOnUse">
<stop stop-color="#90CEA1"/>
<stop offset="0.56" stop-color="#3CBEC9"/>
<stop offset="1" stop-color="#00B3E5"/>
</linearGradient>
<clipPath id="clip0_352_1265">
<rect width="97.0975" height="70" fill="white"/>
</clipPath>
</defs>
</svg>
